<svg width="15" height="16" viewBox="0 0 15 16" fill="none" xmlns="http://www.w3.org/2000/svg">
<path d="M10.5692 8.03921C10.585 9.74171 12.0627 10.3083 12.0791 10.3155C12.0666 10.3554 11.8429 11.1228 11.3005 11.9155C10.8316 12.6009 10.345 13.2837 9.57836 13.2978C8.82508 13.3117 8.58286 12.8511 7.72164 12.8511C6.86069 12.8511 6.59157 13.2837 5.87851 13.3117C5.13853 13.3397 4.57502 12.5706 4.10224 11.8878C3.13615 10.4911 2.39786 7.941 3.3892 6.21966C3.88168 5.36483 4.76177 4.82352 5.71704 4.80964C6.44368 4.79578 7.12953 5.2985 7.57376 5.2985C8.0177 5.2985 8.85115 4.69393 9.72735 4.78272C10.0942 4.79799 11.1238 4.93089 11.785 5.89865C11.7317 5.93168 10.5564 6.61587 10.5692 8.03921V8.03921ZM9.15346 3.85867C9.54632 3.38313 9.81074 2.72113 9.7386 2.06244C9.17232 2.0852 8.48756 2.43979 8.08138 2.91508C7.71737 3.33596 7.39857 4.00961 7.48459 4.65526C8.11577 4.7041 8.76058 4.33452 9.15346 3.85867Z" fill="black"/>
</svg>
