<svg width="15" height="16" viewBox="0 0 15 16" fill="none" xmlns="http://www.w3.org/2000/svg">
<path d="M7.61478 6.97736V9.15578H10.7038C10.5682 9.85635 10.1611 10.4496 9.55064 10.8484L11.4135 12.2649C12.4988 11.2831 13.125 9.84106 13.125 8.12799C13.125 7.72913 13.0885 7.34557 13.0206 6.97742L7.61478 6.97736Z" fill="#4285F4"/>
<path d="M2.4908 5.47913C2.09947 6.23592 1.87512 7.08991 1.87512 8.00013C1.87512 8.91034 2.09947 9.76434 2.4908 10.5211C2.4908 10.5262 4.40063 9.06885 4.40063 9.06885C4.28584 8.73135 4.21798 8.37342 4.21798 8.00007C4.21798 7.62672 4.28584 7.26879 4.40063 6.93129L2.4908 5.47913Z" fill="#FBBC05"/>
<path d="M7.61475 4.61478C8.46008 4.61478 9.21146 4.90114 9.81154 5.45342L11.4552 3.84264C10.4586 2.93242 9.16452 2.375 7.61475 2.375C5.37101 2.375 3.43515 3.63807 2.49069 5.479L4.40046 6.93128C4.8544 5.60171 6.1224 4.61478 7.61475 4.61478Z" fill="#EA4335"/>
<path d="M4.39799 9.07068L3.97785 9.38586L2.49069 10.5211C3.43515 12.3569 5.3709 13.6251 7.61463 13.6251C9.16434 13.6251 10.4636 13.1239 11.4133 12.2649L9.55049 10.8484C9.03912 11.1859 8.38687 11.3904 7.61463 11.3904C6.12228 11.3904 4.85434 10.4035 4.40034 9.07393L4.39799 9.07068Z" fill="#34A853"/>
</svg>
