<svg width="30" height="30" viewBox="0 0 30 30" fill="none" xmlns="http://www.w3.org/2000/svg">
<path d="M15.8182 0V6.27273M19.4887 0.483232L17.8417 6.63003M22.9091 1.9L19.7273 7.41107M30 14.1818H23.7273M29.5168 17.8523L23.37 16.2053M28.1 21.2727L22.5889 18.0909M25.8462 4.15376L21.3465 8.65354M28.1 7.09091L22.5889 10.2727M29.5168 10.5113L23.37 12.1583M5.79012 4.15375L10.2899 8.65352M8.72727 1.9L11.9091 7.41107M12.1477 0.483232L13.7947 6.63003M15.8182 23.7273V30M13.3712 23.3142L11.7241 29.461M11.0909 22.3697L7.90909 27.8808M6.27273 14.1818H0M6.6858 11.7348L0.538996 10.0878M7.6303 9.45455L2.11923 6.27273M9.13281 20.8672L4.63304 25.367M7.63031 18.9091L2.11924 22.0909M6.6858 16.6288L0.538996 18.2759M22.5036 20.8672L27.0033 25.367M20.5455 22.3697L23.7273 27.8808M18.2652 23.3142L19.9122 29.461" stroke="url(#paint0_linear_77_6210)" stroke-width="2.25"/>
<defs>
<linearGradient id="paint0_linear_77_6210" x1="27.75" y1="2.25" x2="-5.25" y2="35.25" gradientUnits="userSpaceOnUse">
<stop stop-color="#0A0D14"/>
<stop offset="1" stop-color="#0A0D14" stop-opacity="0.08"/>
</linearGradient>
</defs>
</svg>
